<?xml version="1.0" standalone="no"?>
<!DOCTYPE svg PUBLIC "-//W3C//DTD SVG 20010904//EN"
 "http://www.w3.org/TR/2001/REC-SVG-20010904/DTD/svg10.dtd">
<svg version="1.0" xmlns="http://www.w3.org/2000/svg"
 width="1080.000000pt" height="1080.000000pt" viewBox="0 0 1080.000000 1080.000000"
 preserveAspectRatio="xMidYMid meet">

<g transform="translate(0.000000,1080.000000) scale(0.100000,-0.100000)"
fill="#000000" stroke="none">
<path d="M3718 9004 c-30 -16 -58 -61 -58 -92 0 -31 25 -72 64 -104 l36 -29 2
-667 c2 -436 6 -667 13 -667 7 0 11 231 13 667 l2 667 42 40 c38 37 42 45 42
92 1 47 -2 54 -34 80 -38 32 -79 37 -122 13z"/>
<path d="M3703 7320 c-49 -25 -69 -64 -67 -131 2 -60 26 -94 81 -119 53 -23
76 -25 95 -7 7 7 25 17 39 24 34 15 59 65 59 118 0 35 -7 50 -37 85 -48 53
-104 63 -170 30z"/>
<path d="M3760 6881 c0 -66 3 -81 15 -81 13 0 15 13 13 77 -2 50 -7 78 -15 81
-10 3 -13 -17 -13 -77z"/>
<path d="M3723 6683 c-60 -21 -86 -61 -86 -130 0 -59 21 -100 61 -118 12 -5
22 -13 22 -17 0 -5 23 -8 50 -8 28 0 50 5 50 10 0 6 6 10 14 10 8 0 28 17 45
37 60 73 34 175 -55 213 -53 23 -47 23 -101 3z"/>
<path d="M3767 6314 c-4 -4 -7 -43 -7 -86 0 -59 3 -79 13 -76 7 3 13 29 15 71
3 65 -7 105 -21 91z"/>
<path d="M3693 6028 c-42 -30 -58 -62 -57 -114 2 -84 42 -133 118 -141 57 -6
90 9 126 58 37 51 40 106 9 156 -40 65 -134 84 -196 41z"/>
<path d="M3766 5663 c-3 -3 -6 -623 -6 -1377 0 -1520 5 -1400 -67 -1521 -20
-33 -56 -84 -80 -114 -81 -100 -110 -197 -82 -268 31 -74 40 -90 66 -114 31
-29 74 -54 86 -51 4 1 21 -5 37 -13 36 -19 70 -19 107 -1 15 8 48 24 73 36 30
14 56 37 79 71 31 46 34 55 35 132 1 92 -3 101 -100 228 -24 31 -62 90 -84
130 l-40 74 0 253 c0 223 2 252 16 252 29 0 119 -69 169 -131 28 -33 57 -66
65 -73 8 -6 28 -29 44 -50 16 -22 49 -62 74 -90 24 -28 67 -78 95 -111 71 -81
253 -257 285 -275 15 -8 31 -21 35 -28 5 -7 27 -25 49 -40 23 -15 53 -35 67
-45 14 -9 38 -23 54 -29 15 -7 27 -15 27 -19 0 -15 257 -142 270 -134 4 3 13
-2 20 -10 7 -8 21 -15 31 -15 10 0 20 -4 23 -9 3 -5 15 -7 25 -4 10 3 22 0 25
-6 4 -6 18 -11 30 -11 13 0 29 -7 36 -16 7 -8 23 -14 34 -12 12 1 27 -2 35 -6
20 -13 88 -28 137 -31 23 -1 48 -6 55 -11 8 -5 41 -10 74 -10 33 -1 80 -7 105
-13 33 -8 313 -11 1030 -9 l984 3 42 -40 c37 -37 45 -40 94 -40 50 0 56 2 77
34 31 45 30 95 -3 138 -23 30 -30 33 -76 33 -47 0 -55 -4 -100 -46 l-49 -45
-1037 4 c-778 2 -1052 6 -1097 16 -409 85 -630 178 -919 384 -116 83 -330 292
-412 404 -198 268 -325 557 -382 873 -30 162 -32 226 -32 975 0 425 -4 776 -9
779 -4 3 -11 3 -15 -1z"/>
<path d="M6193 2697 c-28 -12 -29 -22 -23 -200 l5 -149 33 -29 c27 -25 41 -29
88 -29 51 0 59 3 92 36 l36 36 21 -25 c11 -13 30 -30 42 -36 34 -17 102 -13
132 8 27 19 27 19 39 0 7 -11 23 -19 41 -19 l28 0 5 138 c4 115 8 144 26 179
24 46 47 63 87 63 39 0 55 -48 55 -170 0 -156 34 -210 133 -210 45 0 54 4 87
39 35 36 37 37 49 19 21 -33 73 -58 124 -58 40 0 53 5 83 33 l36 33 33 -33
c29 -29 40 -33 83 -33 87 0 138 66 130 168 -4 59 -22 53 -29 -10 -11 -92 -49
-139 -98 -123 -33 10 -39 38 -42 201 -1 82 -4 155 -7 162 -5 14 -58 16 -67 2
-4 -7 -12 -7 -25 0 -28 15 -127 12 -160 -5 -16 -8 -41 -30 -55 -49 -25 -33
-33 -63 -50 -209 -5 -33 -15 -58 -35 -80 -25 -28 -31 -30 -56 -22 -40 14 -53
58 -53 183 -1 149 -29 192 -124 192 -46 0 -107 -24 -107 -42 0 -17 -17 -6 -28
18 -10 20 -18 25 -40 22 l-27 -3 -6 -146 c-6 -162 -20 -205 -72 -223 -23 -8
-31 -6 -50 12 -21 21 -22 34 -27 190 l-5 167 -26 3 c-49 6 -59 -18 -59 -136 0
-59 -5 -125 -11 -146 -15 -54 -61 -98 -96 -94 -45 5 -53 35 -53 210 0 140 -2
158 -17 166 -11 6 -26 6 -40 -1z m1168 -40 c31 -24 39 -56 39 -154 0 -112 -15
-150 -69 -173 -60 -24 -95 13 -107 114 -11 89 3 165 36 198 31 30 73 37 101
15z"/>
<path d="M5092 1978 c3 -7 20 -75 39 -150 18 -76 36 -138 40 -138 6 0 79 276
79 297 0 4 -4 3 -9 -2 -5 -6 -21 -63 -37 -127 -15 -65 -31 -115 -35 -110 -4 4
-19 60 -35 125 -15 64 -32 117 -37 117 -5 0 -7 -6 -5 -12z"/>
<path d="M5384 1840 c0 -85 2 -120 3 -77 2 42 2 112 0 155 -1 42 -3 7 -3 -78z"/>
<path d="M5503 1840 c0 -82 4 -150 8 -150 5 0 9 31 9 69 l0 68 42 6 c55 7 71
29 65 86 -6 54 -26 71 -83 71 l-41 0 0 -150z m101 119 c12 -11 13 -86 1 -98
-6 -6 -26 -12 -45 -13 l-35 -3 -3 67 -3 67 38 -6 c21 -3 42 -9 47 -14z"/>
<path d="M5936 1843 c1 -82 3 -150 5 -153 2 -3 6 51 9 120 l5 125 49 -122 c28
-68 53 -123 58 -123 4 0 8 68 8 150 0 183 -18 206 -22 28 l-3 -122 -48 122
c-27 67 -52 122 -56 122 -4 0 -6 -66 -5 -147z"/>
<path d="M6236 1878 c-15 -63 -29 -132 -31 -154 l-5 -39 11 35 c6 19 13 41 15
48 2 7 20 12 43 12 38 0 39 -1 46 -40 4 -22 12 -43 17 -46 7 -5 9 1 5 17 -3
13 -18 78 -33 144 -15 66 -30 124 -34 128 -4 5 -20 -43 -34 -105z m43 25 c5
-21 13 -55 17 -75 6 -37 6 -38 -24 -38 -17 0 -33 3 -35 8 -4 7 23 142 29 142
2 0 8 -17 13 -37z"/>
<path d="M6460 1840 c0 -93 4 -150 10 -150 6 0 10 57 10 150 0 93 -4 150 -10
150 -6 0 -10 -57 -10 -150z"/>
<path d="M6590 1840 l0 -150 63 2 62 1 -55 6 -55 6 0 143 c0 78 -3 142 -7 142
-5 0 -8 -67 -8 -150z"/>
<path d="M6840 1970 c-28 -28 -27 -85 3 -113 13 -12 38 -30 55 -39 27 -14 32
-23 32 -52 0 -71 -62 -88 -92 -26 -13 25 -18 29 -18 15 0 -79 111 -89 125 -11
9 45 -7 71 -56 96 -50 26 -66 58 -50 99 7 16 21 31 31 34 25 6 60 -19 60 -44
0 -10 5 -19 10 -19 19 0 1 56 -24 72 -20 14 -56 8 -76 -12z"/>
</g>
</svg>
